<svg fill="none" xmlns="http://www.w3.org/2000/svg" viewBox="0 0 320 320">
  <path d="M237.44 235.98c24.29-24.72 40.6-53.21 47.18-79.5 6.54-26.17 3.59-51.14-12.26-67.28-15.86-16.14-40.4-19.13-66.1-12.48-25.84 6.7-53.84 23.3-78.12 48.01-24.29 24.72-40.6 53.21-47.17 79.5-6.55 26.18-3.6 51.14 12.26 67.28 15.85 16.14 40.39 19.13 66.1 12.48 25.83-6.7 53.83-23.3 78.11-48.01Z" stroke="#000" stroke-width="10"/>
  <path d="M230.93 231.25c24.29-24.72 40.6-53.22 47.17-79.5 6.55-26.18 3.6-51.14-12.26-67.28-15.85-16.14-40.38-19.14-66.1-12.48-25.83 6.69-53.83 23.3-78.11 48-24.29 24.72-40.6 53.22-47.17 79.51-6.55 26.17-3.6 51.14 12.26 67.27 15.85 16.14 40.38 19.14 66.1 12.48 25.83-6.69 53.83-23.29 78.11-48Z" stroke="#000" stroke-width="10"/>
  <path d="M225.35 226.51c24.29-24.71 40.6-53.21 47.17-79.5 6.54-26.17 3.6-51.14-12.26-67.28-15.85-16.13-40.39-19.13-66.1-12.47-25.83 6.69-53.83 23.29-78.12 48-24.28 24.72-40.6 53.22-47.17 79.5-6.54 26.18-3.6 51.14 12.26 67.28s40.4 19.14 66.1 12.48c25.84-6.69 53.84-23.3 78.12-48Z" stroke="#000" stroke-width="10"/>
  <path d="M223.5 224.62c24.28-24.72 40.59-53.21 47.16-79.5 6.54-26.18 3.6-51.14-12.26-67.28-15.85-16.14-40.39-19.14-66.1-12.48-25.83 6.7-53.83 23.3-78.12 48.01-24.28 24.72-40.6 53.21-47.17 79.5-6.54 26.17-3.6 51.14 12.26 67.28s40.4 19.13 66.1 12.48c25.84-6.7 53.84-23.3 78.12-48.01Z" stroke="#7FCEEE" stroke-width="10"/>
  <path d="M216.98 219.88c24.28-24.71 40.6-53.2 47.17-79.5 6.54-26.17 3.6-51.14-12.26-67.27-15.86-16.14-40.39-19.14-66.1-12.48-25.83 6.69-53.83 23.3-78.12 48-24.28 24.72-40.6 53.22-47.17 79.51-6.54 26.17-3.6 51.14 12.26 67.27 15.86 16.14 40.39 19.14 66.1 12.48 25.84-6.69 53.83-23.29 78.12-48Z" stroke="#7FCEEE" stroke-width="10"/>
  <path d="M213.26 216.1c24.28-24.72 40.6-53.22 47.17-79.5 6.54-26.18 3.6-51.14-12.26-67.28s-40.39-19.14-66.1-12.48c-25.83 6.7-53.83 23.3-78.12 48-24.28 24.72-40.6 53.22-47.17 79.51-6.54 26.17-3.6 51.14 12.26 67.28 15.86 16.13 40.39 19.13 66.1 12.48 25.84-6.7 53.83-23.3 78.12-48.01Z" stroke="#7FCEEE" stroke-width="10"/>
  <path d="M207.68 211.36c24.28-24.71 40.6-53.2 47.17-79.5 6.54-26.17 3.6-51.14-12.26-67.27-15.86-16.14-40.4-19.14-66.1-12.48-25.84 6.69-53.84 23.29-78.12 48-24.29 24.72-40.6 53.22-47.17 79.5-6.54 26.18-3.6 51.15 12.26 67.28 15.86 16.14 40.39 19.14 66.1 12.48 25.83-6.69 53.83-23.3 78.12-48Z" stroke="#7FCEEE" stroke-width="10"/>
  <path d="M203.96 207.58c24.28-24.72 40.6-53.22 47.17-79.5 6.54-26.18 3.6-51.14-12.26-67.28s-40.4-19.14-66.1-12.48c-25.84 6.69-53.84 23.3-78.12 48-24.29 24.72-40.6 53.22-47.17 79.51-6.54 26.17-3.6 51.14 12.26 67.28 15.85 16.13 40.39 19.13 66.1 12.47 25.83-6.69 53.83-23.29 78.12-48Z" stroke="#7FCEEE" stroke-width="10"/>
  <path d="M200.24 203.79c24.28-24.72 40.6-53.21 47.16-79.5 6.55-26.17 3.6-51.14-12.25-67.28-15.86-16.14-40.4-19.13-66.1-12.48-25.84 6.7-53.84 23.3-78.12 48.01-24.29 24.72-40.6 53.21-47.17 79.5-6.55 26.18-3.6 51.14 12.26 67.28 15.85 16.14 40.38 19.13 66.1 12.48 25.83-6.7 53.83-23.3 78.12-48.01Z" stroke="#000" stroke-width="10"/>
  <path d="M196.51 200c24.29-24.71 40.6-53.21 47.17-79.5 6.55-26.17 3.6-51.14-12.26-67.28-15.85-16.13-40.38-19.13-66.1-12.47-25.83 6.69-53.83 23.29-78.11 48-24.29 24.72-40.6 53.22-47.17 79.5-6.55 26.18-3.6 51.15 12.26 67.28 15.85 16.14 40.38 19.14 66.1 12.48 25.83-6.69 53.83-23.3 78.11-48Z" stroke="#000" stroke-width="10"/>
  <path d="M191.86 195.27c24.29-24.72 40.6-53.21 47.17-79.5 6.54-26.17 3.6-51.14-12.26-67.28-15.85-16.14-40.39-19.14-66.1-12.48-25.83 6.7-53.83 23.3-78.12 48.01-24.28 24.72-40.6 53.21-47.17 79.5-6.54 26.17-3.59 51.14 12.27 67.28 15.85 16.13 40.38 19.13 66.1 12.48 25.83-6.7 53.83-23.3 78.11-48.01Z" stroke="#000" stroke-width="10"/>
</svg>